<svg viewBox="0 0 1200 800" xmlns="http://www.w3.org/2000/svg">
  <!-- Field background -->
  <rect width="1200" height="800" fill="#2d7a3e"/>
  
  <!-- Outer border -->
  <rect x="25" y="25" width="1150" height="750" fill="none" stroke="white" stroke-width="8"/>
  
  <!-- End zones -->
  <rect x="25" y="25" width="100" height="750" fill="#1e5a2d"/>
  <rect x="1075" y="25" width="100" height="750" fill="#1e5a2d"/>
  
  <!-- Hash marks -->
  <g stroke="white" stroke-width="2">
    <!-- Top hash marks -->
    <line x1="140" y1="120" x2="140" y2="140"/><line x1="157" y1="120" x2="157" y2="140"/>
    <line x1="190" y1="120" x2="190" y2="140"/><line x1="207" y1="120" x2="207" y2="140"/>
    <line x1="240" y1="120" x2="240" y2="140"/><line x1="257" y1="120" x2="257" y2="140"/>
    <line x1="290" y1="120" x2="290" y2="140"/><line x1="307" y1="120" x2="307" y2="140"/>
    <line x1="340" y1="120" x2="340" y2="140"/><line x1="357" y1="120" x2="357" y2="140"/>
    <line x1="390" y1="120" x2="390" y2="140"/><line x1="407" y1="120" x2="407" y2="140"/>
    <line x1="440" y1="120" x2="440" y2="140"/><line x1="457" y1="120" x2="457" y2="140"/>
    <line x1="490" y1="120" x2="490" y2="140"/><line x1="507" y1="120" x2="507" y2="140"/>
    <line x1="540" y1="120" x2="540" y2="140"/><line x1="557" y1="120" x2="557" y2="140"/>
    <line x1="590" y1="120" x2="590" y2="140"/><line x1="607" y1="120" x2="607" y2="140"/>
    <line x1="640" y1="120" x2="640" y2="140"/><line x1="657" y1="120" x2="657" y2="140"/>
    <line x1="690" y1="120" x2="690" y2="140"/><line x1="707" y1="120" x2="707" y2="140"/>
    <line x1="740" y1="120" x2="740" y2="140"/><line x1="757" y1="120" x2="757" y2="140"/>
    <line x1="790" y1="120" x2="790" y2="140"/><line x1="807" y1="120" x2="807" y2="140"/>
    <line x1="840" y1="120" x2="840" y2="140"/><line x1="857" y1="120" x2="857" y2="140"/>
    <line x1="890" y1="120" x2="890" y2="140"/><line x1="907" y1="120" x2="907" y2="140"/>
    <line x1="940" y1="120" x2="940" y2="140"/><line x1="957" y1="120" x2="957" y2="140"/>
    <line x1="990" y1="120" x2="990" y2="140"/><line x1="1007" y1="120" x2="1007" y2="140"/>
    <line x1="1040" y1="120" x2="1040" y2="140"/><line x1="1057" y1="120" x2="1057" y2="140"/>
    
    <!-- Bottom hash marks -->
    <line x1="140" y1="660" x2="140" y2="680"/><line x1="157" y1="660" x2="157" y2="680"/>
    <line x1="190" y1="660" x2="190" y2="680"/><line x1="207" y1="660" x2="207" y2="680"/>
    <line x1="240" y1="660" x2="240" y2="680"/><line x1="257" y1="660" x2="257" y2="680"/>
    <line x1="290" y1="660" x2="290" y2="680"/><line x1="307" y1="660" x2="307" y2="680"/>
    <line x1="340" y1="660" x2="340" y2="680"/><line x1="357" y1="660" x2="357" y2="680"/>
    <line x1="390" y1="660" x2="390" y2="680"/><line x1="407" y1="660" x2="407" y2="680"/>
    <line x1="440" y1="660" x2="440" y2="680"/><line x1="457" y1="660" x2="457" y2="680"/>
    <line x1="490" y1="660" x2="490" y2="680"/><line x1="507" y1="660" x2="507" y2="680"/>
    <line x1="540" y1="660" x2="540" y2="680"/><line x1="557" y1="660" x2="557" y2="680"/>
    <line x1="590" y1="660" x2="590" y2="680"/><line x1="607" y1="660" x2="607" y2="680"/>
    <line x1="640" y1="660" x2="640" y2="680"/><line x1="657" y1="660" x2="657" y2="680"/>
    <line x1="690" y1="660" x2="690" y2="680"/><line x1="707" y1="660" x2="707" y2="680"/>
    <line x1="740" y1="660" x2="740" y2="680"/><line x1="757" y1="660" x2="757" y2="680"/>
    <line x1="790" y1="660" x2="790" y2="680"/><line x1="807" y1="660" x2="807" y2="680"/>
    <line x1="840" y1="660" x2="840" y2="680"/><line x1="857" y1="660" x2="857" y2="680"/>
    <line x1="890" y1="660" x2="890" y2="680"/><line x1="907" y1="660" x2="907" y2="680"/>
    <line x1="940" y1="660" x2="940" y2="680"/><line x1="957" y1="660" x2="957" y2="680"/>
    <line x1="990" y1="660" x2="990" y2="680"/><line x1="1007" y1="660" x2="1007" y2="680"/>
    <line x1="1040" y1="660" x2="1040" y2="680"/><line x1="1057" y1="660" x2="1057" y2="680"/>
  </g>
  
  <!-- Goal posts -->
  <g fill="none" stroke="white" stroke-width="3">
    <!-- Left goal post -->
    <line x1="125" y1="340" x2="125" y2="460"/>
    <line x1="125" y1="340" x2="105" y2="340"/>
    <line x1="125" y1="460" x2="105" y2="460"/>
    
    <!-- Right goal post -->
    <line x1="1075" y1="340" x2="1075" y2="460"/>
    <line x1="1075" y1="340" x2="1095" y2="340"/>
    <line x1="1075" y1="460" x2="1095" y2="460"/>
  </g>
</svg>